# Blender v2.79 (sub 0) OBJ File: ''
# www.blender.org
o Bigarm_Bigarm.001
v 4.716773 0.050000 -0.423880
v 4.900544 0.050000 -0.500000
v 4.716773 1.000000 -0.423880
v 4.900544 1.000000 -0.500000
v 4.576120 0.050000 -0.283227
v 4.576120 1.000000 -0.283227
v 4.500000 0.050000 -0.099456
v 4.500000 1.000000 -0.099456
v 4.500000 0.050000 0.099456
v 4.500000 1.000000 0.099456
v 4.576120 0.050000 0.283227
v 4.576120 1.000000 0.283227
v 4.716773 0.050000 0.423880
v 4.716773 1.000000 0.423880
v 4.900544 0.050000 0.500000
v 4.900544 1.000000 0.500000
v 5.099456 1.000000 0.500000
v 5.283227 1.000000 0.423880
v 5.099456 -0.050000 0.500000
v 5.283227 -0.050000 0.423880
v 5.423879 1.000000 0.283227
v 5.423879 -0.050000 0.283227
v 5.500000 1.000000 0.099456
v 5.500000 -0.050000 0.099456
v 5.500000 1.000000 -0.099456
v 5.500000 -0.050000 -0.099456
v 5.423879 1.000000 -0.283227
v 5.423879 -0.050000 -0.283227
v 5.283227 1.000000 -0.423880
v 5.283227 -0.050000 -0.423880
v 5.099456 1.000000 -0.500000
v 5.099456 -0.050000 -0.500000
v -5.099456 -1.000000 -0.500000
v -5.099456 -1.000000 0.500000
v -4.900544 -1.000000 -0.500000
v -4.900544 -1.000000 0.500000
v -4.716773 -1.000000 -0.423880
v -4.716773 -1.000000 0.423880
v -4.576120 -1.000000 -0.283227
v -4.576120 -1.000000 0.283227
v -4.500000 -1.000000 -0.099456
v -4.500000 -1.000000 0.099456
v -5.283227 -1.000000 0.423880
v -5.283227 -1.000000 -0.423880
v -5.423879 -1.000000 0.283227
v -5.423879 -1.000000 -0.283227
v -5.500000 -1.000000 0.099456
v -5.500000 -1.000000 -0.099456
v -5.099456 0.050000 -0.500000
v -5.283227 0.050000 -0.423880
v -5.423879 0.050000 -0.283227
v -5.500000 0.050000 -0.099456
v -5.500000 0.050000 0.099456
v -5.423879 0.050000 0.283227
v -5.283227 0.050000 0.423880
v -5.099456 0.050000 0.500000
v -4.900544 -0.050000 0.500000
v -4.716773 -0.050000 0.423880
v -4.576120 -0.050000 0.283227
v -4.500000 -0.050000 0.099456
v -4.500000 -0.050000 -0.099456
v -4.576120 -0.050000 -0.283227
v -4.716773 -0.050000 -0.423880
v -4.900544 -0.050000 -0.500000
vn -0.3827 0.0000 -0.9239
vn -0.7071 0.0000 -0.7071
vn -0.9239 0.0000 -0.3827
vn -1.0000 0.0000 0.0000
vn -0.9239 0.0000 0.3827
vn -0.7071 0.0000 0.7071
vn -0.3827 0.0000 0.9239
vn 0.3827 0.0000 0.9239
vn 0.7071 -0.0000 0.7071
vn 0.9239 0.0000 0.3827
vn 1.0000 0.0000 0.0000
vn 0.9239 -0.0000 -0.3827
vn 0.7071 -0.0000 -0.7071
vn 0.3827 0.0000 -0.9239
vn 0.0000 1.0000 0.0000
vn 0.0000 -1.0000 0.0000
vn 0.0000 0.0000 1.0000
vn 0.0000 0.0000 -1.0000
s off
f 1//1 3//1 2//1
f 3//1 4//1 2//1
f 5//2 6//2 1//2
f 6//2 3//2 1//2
f 7//3 8//3 5//3
f 8//3 6//3 5//3
f 9//4 10//4 7//4
f 10//4 8//4 7//4
f 11//5 12//5 9//5
f 12//5 10//5 9//5
f 13//6 14//6 11//6
f 14//6 12//6 11//6
f 15//7 16//7 13//7
f 16//7 14//7 13//7
f 17//8 19//8 18//8
f 19//8 20//8 18//8
f 18//9 20//9 21//9
f 20//9 22//9 21//9
f 21//10 22//10 23//10
f 22//10 24//10 23//10
f 23//11 24//11 25//11
f 24//11 26//11 25//11
f 25//12 26//12 27//12
f 26//12 28//12 27//12
f 27//13 28//13 29//13
f 28//13 30//13 29//13
f 29//14 30//14 31//14
f 30//14 32//14 31//14
f 31//15 4//15 17//15
f 4//15 16//15 17//15
f 4//15 3//15 16//15
f 3//15 14//15 16//15
f 3//15 6//15 14//15
f 6//15 12//15 14//15
f 6//15 8//15 12//15
f 8//15 10//15 12//15
f 17//15 18//15 31//15
f 18//15 29//15 31//15
f 18//15 21//15 29//15
f 21//15 27//15 29//15
f 21//15 23//15 27//15
f 23//15 25//15 27//15
f 33//16 35//16 34//16
f 35//16 36//16 34//16
f 35//16 37//16 36//16
f 37//16 38//16 36//16
f 37//16 39//16 38//16
f 39//16 40//16 38//16
f 39//16 41//16 40//16
f 41//16 42//16 40//16
f 34//16 43//16 33//16
f 43//16 44//16 33//16
f 43//16 45//16 44//16
f 45//16 46//16 44//16
f 45//16 47//16 46//16
f 47//16 48//16 46//16
f 49//1 33//1 50//1
f 33//1 44//1 50//1
f 50//2 44//2 51//2
f 44//2 46//2 51//2
f 51//3 46//3 52//3
f 46//3 48//3 52//3
f 52//4 48//4 53//4
f 48//4 47//4 53//4
f 53//5 47//5 54//5
f 47//5 45//5 54//5
f 54//6 45//6 55//6
f 45//6 43//6 55//6
f 55//7 43//7 56//7
f 43//7 34//7 56//7
f 57//8 36//8 58//8
f 36//8 38//8 58//8
f 58//9 38//9 59//9
f 38//9 40//9 59//9
f 59//10 40//10 60//10
f 40//10 42//10 60//10
f 60//11 42//11 61//11
f 42//11 41//11 61//11
f 61//12 41//12 62//12
f 41//12 39//12 62//12
f 62//13 39//13 63//13
f 39//13 37//13 63//13
f 63//14 37//14 64//14
f 37//14 35//14 64//14
f 57//16 58//16 19//16
f 58//16 59//16 19//16
f 59//16 20//16 19//16
f 59//16 22//16 20//16
f 59//16 60//16 22//16
f 60//16 24//16 22//16
f 60//16 26//16 24//16
f 60//16 61//16 26//16
f 61//16 28//16 26//16
f 61//16 62//16 28//16
f 62//16 30//16 28//16
f 62//16 32//16 30//16
f 64//16 32//16 63//16
f 32//16 62//16 63//16
f 34//17 57//17 56//17
f 57//17 15//17 56//17
f 57//17 19//17 15//17
f 19//17 17//17 15//17
f 17//17 16//17 15//17
f 57//17 34//17 36//17
f 49//18 2//18 64//18
f 2//18 32//18 64//18
f 2//18 31//18 32//18
f 49//18 64//18 33//18
f 64//18 35//18 33//18
f 31//18 2//18 4//18
f 2//15 49//15 1//15
f 49//15 5//15 1//15
f 49//15 50//15 5//15
f 50//15 51//15 5//15
f 51//15 7//15 5//15
f 51//15 52//15 7//15
f 52//15 9//15 7//15
f 52//15 53//15 9//15
f 53//15 54//15 9//15
f 54//15 11//15 9//15
f 54//15 55//15 11//15
f 55//15 56//15 11//15
f 56//15 13//15 11//15
f 56//15 15//15 13//15
