# Blender v2.79 (sub 0) OBJ File: ''
# www.blender.org
v -1.713060 -0.050000 0.423471
v -1.894483 -0.050000 0.500000
v -1.713060 -1.000000 0.423471
v -1.896957 -1.000000 0.501044
v -1.896957 0.050000 0.501044
v -1.894483 0.050000 0.500000
v -1.572846 -0.050000 0.281429
v -1.572846 -1.000000 0.281429
v -1.497663 -0.050000 0.096542
v -1.497663 -1.000000 0.096542
v -1.498956 -0.050000 -0.103043
v -1.498956 -1.000000 -0.103043
v -1.576529 -0.050000 -0.286940
v -1.576529 -1.000000 -0.286940
v -1.718571 -0.050000 -0.427154
v -1.718571 -1.000000 -0.427154
v -1.897712 -0.050000 -0.500000
v -1.903458 -1.000000 -0.502337
v -1.903458 0.050000 -0.502337
v -1.897712 0.050000 -0.500000
v -2.103043 -1.000000 -0.501043
v -2.103043 0.050000 -0.501044
v -2.286941 -1.000000 -0.423471
v -2.286941 0.050000 -0.423471
v -2.427154 -1.000000 -0.281429
v -2.427154 0.050000 -0.281429
v -2.502337 -1.000000 -0.096542
v -2.502337 0.050000 -0.096542
v -2.501044 -1.000000 0.103043
v -2.501044 0.050000 0.103043
v -2.423471 -1.000000 0.286940
v -2.423471 0.050000 0.286940
v -2.281429 -1.000000 0.427154
v -2.281429 0.050000 0.427154
v -2.096542 -1.000000 0.502337
v -2.096542 0.050000 0.502337
v 1.896409 -0.050000 -0.500000
v 1.896409 0.050000 -0.500000
v 1.898991 -0.050000 -0.501078
v 1.898991 1.000000 -0.501078
v 1.714926 1.000000 -0.424281
v 1.714926 0.050000 -0.424281
v 1.901566 1.000000 0.501590
v 1.717109 1.000000 0.425739
v 1.575719 1.000000 0.285074
v 1.574261 1.000000 -0.282891
v 1.498923 1.000000 0.101009
v 1.498410 1.000000 -0.098434
v 2.098434 1.000000 -0.501590
v 2.101009 1.000000 0.501077
v 2.282892 1.000000 -0.425739
v 2.285074 1.000000 0.424281
v 2.424281 1.000000 -0.285074
v 2.425739 1.000000 0.282891
v 2.501077 1.000000 -0.101009
v 2.501590 1.000000 0.098434
v 1.901566 -0.050000 0.501590
v 2.101009 -0.050000 0.501078
v 2.285074 -0.050000 0.424281
v 2.425739 -0.050000 0.282891
v 2.501590 -0.050000 0.098434
v 2.501077 -0.050000 -0.101009
v 2.424281 -0.050000 -0.285074
v 2.282892 -0.050000 -0.425739
v 2.098434 -0.050000 -0.501590
v 1.574261 0.050000 -0.282891
v 1.498410 0.050000 -0.098434
v 1.498923 0.050000 0.101009
v 1.575719 0.050000 0.285074
v 1.717109 0.050000 0.425739
v 1.897700 -0.050000 0.500000
v 1.897700 0.050000 0.500000
vn 0.3887 0.0000 0.9214
vn 0.3886 0.0000 0.9214
vn 0.7117 0.0000 0.7025
vn 0.9263 -0.0000 0.3767
vn 1.0000 0.0000 -0.0065
vn 0.9214 0.0000 -0.3887
vn 0.7025 0.0000 -0.7117
vn 0.3767 -0.0000 -0.9263
vn -0.0065 -0.0000 -1.0000
vn -0.3887 -0.0000 -0.9214
vn -0.7117 0.0000 -0.7025
vn -0.9263 -0.0000 -0.3767
vn -1.0000 0.0000 0.0065
vn -0.9214 0.0000 0.3887
vn -0.7025 -0.0000 0.7117
vn -0.3767 0.0000 0.9263
vn 0.0065 0.0000 1.0000
vn 0.0000 -1.0000 0.0000
vn -0.3850 0.0000 -0.9229
vn -0.3851 0.0000 -0.9229
vn 0.0000 1.0000 0.0000
vn 0.0026 0.0000 1.0000
vn 0.3851 0.0000 0.9229
vn 0.7089 0.0000 0.7053
vn 0.9249 0.0000 0.3803
vn 1.0000 0.0000 -0.0026
vn 0.9229 0.0000 -0.3851
vn 0.7053 0.0000 -0.7089
vn 0.3803 -0.0000 -0.9249
vn -0.0026 -0.0000 -1.0000
vn -0.7089 0.0000 -0.7053
vn -0.9249 -0.0000 -0.3803
vn -1.0000 0.0000 0.0026
vn -0.9229 0.0000 0.3851
vn -0.7053 0.0000 0.7089
vn -0.3803 0.0000 0.9249
vn 0.0000 0.0000 -1.0000
vn 0.0000 0.0000 1.0000
s off
f 1//1 2//1 3//1
f 3//1 2//1 4//1
f 4//2 2//2 5//2
f 5//2 2//2 6//2
f 7//3 1//3 8//3
f 8//3 1//3 3//3
f 9//4 7//4 10//4
f 10//4 7//4 8//4
f 11//5 9//5 12//5
f 12//5 9//5 10//5
f 13//6 11//6 14//6
f 14//6 11//6 12//6
f 15//7 13//7 16//7
f 16//7 13//7 14//7
f 15//8 16//8 17//8
f 17//8 16//8 18//8
f 17//8 18//8 19//8
f 19//8 20//8 17//8
f 18//9 21//9 19//9
f 19//9 21//9 22//9
f 21//10 23//10 22//10
f 22//10 23//10 24//10
f 23//11 25//11 24//11
f 24//11 25//11 26//11
f 25//12 27//12 26//12
f 26//12 27//12 28//12
f 27//13 29//13 28//13
f 28//13 29//13 30//13
f 29//14 31//14 30//14
f 30//14 31//14 32//14
f 31//15 33//15 32//15
f 32//15 33//15 34//15
f 33//16 35//16 34//16
f 34//16 35//16 36//16
f 35//17 4//17 36//17
f 36//17 4//17 5//17
f 4//18 16//18 3//18
f 3//18 16//18 14//18
f 3//18 14//18 8//18
f 8//18 14//18 12//18
f 8//18 12//18 10//18
f 16//18 4//18 18//18
f 18//18 4//18 35//18
f 18//18 35//18 21//18
f 21//18 35//18 33//18
f 21//18 33//18 23//18
f 23//18 33//18 31//18
f 23//18 31//18 25//18
f 25//18 31//18 29//18
f 25//18 29//18 27//18
f 37//19 38//19 39//19
f 39//19 38//19 40//19
f 40//20 38//20 41//20
f 41//20 38//20 42//20
f 43//21 40//21 44//21
f 44//21 40//21 41//21
f 44//21 41//21 45//21
f 45//21 41//21 46//21
f 45//21 46//21 47//21
f 47//21 46//21 48//21
f 40//21 43//21 49//21
f 49//21 43//21 50//21
f 49//21 50//21 51//21
f 51//21 50//21 52//21
f 51//21 52//21 53//21
f 53//21 52//21 54//21
f 53//21 54//21 55//21
f 55//21 54//21 56//21
f 57//22 58//22 43//22
f 43//22 58//22 50//22
f 58//23 59//23 50//23
f 50//23 59//23 52//23
f 59//24 60//24 52//24
f 52//24 60//24 54//24
f 60//25 61//25 54//25
f 54//25 61//25 56//25
f 61//26 62//26 56//26
f 56//26 62//26 55//26
f 62//27 63//27 55//27
f 55//27 63//27 53//27
f 63//28 64//28 53//28
f 53//28 64//28 51//28
f 64//29 65//29 51//29
f 51//29 65//29 49//29
f 65//30 39//30 49//30
f 49//30 39//30 40//30
f 42//31 66//31 41//31
f 41//31 66//31 46//31
f 66//32 67//32 46//32
f 46//32 67//32 48//32
f 67//33 68//33 48//33
f 48//33 68//33 47//33
f 68//34 69//34 47//34
f 47//34 69//34 45//34
f 69//35 70//35 45//35
f 45//35 70//35 44//35
f 71//36 57//36 72//36
f 72//36 57//36 43//36
f 72//36 43//36 44//36
f 44//36 70//36 72//36
f 38//21 20//21 42//21
f 42//21 20//21 66//21
f 66//21 20//21 67//21
f 67//21 20//21 26//21
f 67//21 26//21 28//21
f 19//21 22//21 20//21
f 20//21 22//21 24//21
f 20//21 24//21 26//21
f 67//21 28//21 68//21
f 68//21 28//21 30//21
f 68//21 30//21 32//21
f 68//21 32//21 6//21
f 6//21 32//21 34//21
f 6//21 34//21 36//21
f 36//21 5//21 6//21
f 72//21 70//21 6//21
f 6//21 70//21 69//21
f 6//21 69//21 68//21
f 37//37 17//37 38//37
f 38//37 17//37 20//37
f 2//38 71//38 6//38
f 6//38 71//38 72//38
f 2//18 1//18 71//18
f 71//18 1//18 7//18
f 71//18 7//18 9//18
f 11//18 62//18 9//18
f 9//18 62//18 61//18
f 9//18 61//18 60//18
f 13//18 37//18 11//18
f 11//18 37//18 63//18
f 11//18 63//18 62//18
f 13//18 15//18 37//18
f 37//18 15//18 17//18
f 39//18 65//18 37//18
f 37//18 65//18 64//18
f 37//18 64//18 63//18
f 9//18 60//18 71//18
f 71//18 60//18 59//18
f 71//18 59//18 58//18
f 58//18 57//18 71//18
